<svg width="132" height="153" viewBox="0 0 132 153" fill="none" xmlns="http://www.w3.org/2000/svg">
<path d="M131.89 38.19V114.58L119.36 121.82L78.95 145.15L78.51 145.4L66.06 152.6L53.31 145.24L44.55 140.18L39.83 137.45L31.66 132.74V56.69L44.55 49.25L44.84 49.08L63.75 38.16L65.62 37.08L65.66 37.06L78.51 29.64L84.98 25.9L78.51 22.17L65.66 14.75L44.55 27.15L31.66 34.59L25.7 38.03L25.48 38.16L12.89 45.43V121.79L2.14999 115.7C0.819994 114.93 0 113.51 0 111.97V38.04L12.89 30.6L31.66 19.76L44.55 12.32L53.01 7.44L65.89 0L72.53 3.83L78.51 7.28L78.73 7.41L97.87 18.46L110.77 25.91L97.88 33.35L89.55 38.16L78.51 44.53L65.66 51.95L65.62 51.97L57.73 56.53L44.84 63.97L44.55 122.8C44.55 124.34 45.37 125.76 46.7 126.53L52.71 130.01L64.81 137C64.81 137 64.22 138.31 64.22 138.39C64.22 138.47 65.52 139.32 65.52 139.32L66.92 138.2L66.2 137.79L78.51 130.69L106.65 114.44L119.36 107.1V60.31L91.83 76.21L78.51 83.9V100.22H78.53V100.61L89.71 94.09C89.57 94.71 89.49 95.37 89.49 96.04C89.49 100.34 92.68 103.91 96.82 104.5L78.53 115.09L74.17 117.61L65.66 122.53V76.43L78.51 69.01L78.94 68.77L119.08 45.59L119.36 45.43L131.89 38.19Z" fill="white"/>
<path d="M66.2 137.79L66.92 138.2L65.52 139.32C65.52 139.32 64.22 138.47 64.22 138.39C64.22 138.31 64.81 137 64.81 137L66.2 137.79Z" fill="white"/>
<path d="M78.53 115.09V115.1L78.51 115.11L74.17 117.61L78.53 115.09Z" fill="white"/>
<path d="M66.92 138.2L65.52 139.32C65.52 139.32 64.22 138.47 64.22 138.39C64.22 138.31 64.81 137 64.81 137L66.2 137.79L66.92 138.2Z" fill="white"/>
<path d="M102.9 100.98L96.82 104.5C92.68 103.91 89.49 100.34 89.49 96.04C89.49 95.37 89.57 94.71 89.71 94.09L92.58 92.41L96.6 90.07L102.71 100.64L102.9 100.98Z" fill="white"/>
<path d="M106.6 96.04C106.6 100.76 102.77 104.59 98.04 104.59C97.62 104.59 97.22 104.56 96.82 104.5C92.68 103.91 89.49 100.34 89.49 96.04C89.49 95.37 89.57 94.71 89.71 94.09C90.59 90.3 93.99 87.48 98.04 87.48C102.77 87.48 106.6 91.31 106.6 96.04Z" fill="white"/>
<path d="M98.04 102.59C101.657 102.59 104.59 99.6575 104.59 96.04C104.59 92.4225 101.657 89.49 98.04 89.49C94.4225 89.49 91.49 92.4225 91.49 96.04C91.49 99.6575 94.4225 102.59 98.04 102.59Z" fill="#231F20"/>
</svg>
