<svg width="153" height="176" viewBox="0 0 153 176" fill="none" xmlns="http://www.w3.org/2000/svg">
<path d="M152.07 131.71L76.04 175.61L0 131.71V43.9L76.03 0L152.07 43.9V131.71Z" fill="#C2334B"/>
<path d="M140.94 48.64V125.03L128.41 132.27L88 155.6L87.56 155.85L75.11 163.05L62.36 155.69L53.6 150.63L48.88 147.9L40.71 143.19V67.14L53.6 59.7L53.89 59.53L72.8 48.61L74.67 47.53L74.71 47.51L87.56 40.09L94.03 36.35L87.56 32.62L74.71 25.2L53.6 37.6L40.71 45.04L34.75 48.48L34.53 48.61L21.94 55.88V132.24L11.21 126.15C9.87 125.38 9.05 123.96 9.05 122.42V48.49L21.94 41.05L40.71 30.21L53.6 22.77L62.06 17.89L74.94 10.45L81.58 14.28L87.56 17.73L87.78 17.86L106.92 28.91L119.82 36.36L106.93 43.8L98.6 48.61L87.56 54.98L74.71 62.4L74.67 62.42L66.78 66.98L53.89 74.42L53.6 133.25C53.6 134.79 54.42 136.21 55.76 136.98L61.76 140.46L73.86 147.45C73.86 147.45 73.28 148.76 73.28 148.84C73.28 148.92 74.57 149.77 74.57 149.77L75.97 148.65L75.25 148.24L87.56 141.14L115.7 124.89L128.41 117.55V70.76L100.88 86.66L87.56 94.35V110.67H87.58V111.06L98.76 104.54C98.62 105.16 98.54 105.82 98.54 106.49C98.54 110.79 101.73 114.36 105.87 114.95L87.58 125.54L83.22 128.06L74.71 132.98V86.88L87.56 79.46L87.99 79.22L128.13 56.04L128.41 55.88L140.94 48.64Z" fill="white"/>
<path d="M75.25 148.24L75.97 148.65L74.57 149.77C74.57 149.77 73.28 148.92 73.28 148.84C73.28 148.76 73.86 147.45 73.86 147.45L75.25 148.24Z" fill="white"/>
<path d="M87.58 125.54V125.55L87.56 125.56L83.22 128.06L87.58 125.54Z" fill="white"/>
<path d="M75.97 148.65L74.57 149.77C74.57 149.77 73.28 148.92 73.28 148.84C73.28 148.76 73.86 147.45 73.86 147.45L75.25 148.24L75.97 148.65Z" fill="white"/>
<path d="M111.95 111.43L105.87 114.95C101.73 114.36 98.54 110.79 98.54 106.49C98.54 105.82 98.62 105.16 98.76 104.54L101.57 102.9L105.65 100.52L111.78 111.13L111.95 111.43Z" fill="white"/>
<path d="M115.65 106.49C115.65 111.21 111.82 115.04 107.1 115.04C106.68 115.04 106.27 115.01 105.87 114.95C101.73 114.36 98.54 110.79 98.54 106.49C98.54 105.82 98.62 105.16 98.76 104.54C99.64 100.75 103.04 97.93 107.1 97.93C111.82 97.93 115.65 101.76 115.65 106.49Z" fill="white"/>
<path d="M107.09 113.09C110.735 113.09 113.69 110.135 113.69 106.49C113.69 102.845 110.735 99.89 107.09 99.89C103.445 99.89 100.49 102.845 100.49 106.49C100.49 110.135 103.445 113.09 107.09 113.09Z" fill="#C2334B"/>
</svg>
