<svg width="580" height="592" viewBox="0 0 580 592" fill="none" xmlns="http://www.w3.org/2000/svg">
<path fill-rule="evenodd" clip-rule="evenodd" d="M292.13 520.983C247.825 521.74 208.07 497.399 171.002 473.12C134.202 449.016 100.979 420.14 79.5296 381.732C56.8586 341.137 28.0814 292.164 45.9782 249.249C64.4208 205.026 129.88 206.91 165.705 175.093C194.681 149.36 198.423 100.724 232.975 83.1774C269.118 64.824 312.669 70.9959 352.087 80.4463C392.958 90.245 431.324 108.613 461.424 137.947C493.237 168.952 515.828 207.872 526.962 250.877C538.996 297.356 549.793 349.63 527.201 391.994C504.831 433.94 452.302 446.155 410.626 469.024C372.034 490.2 336.144 520.23 292.13 520.983Z" fill="#FFE4EA"/>
<path fill-rule="evenodd" clip-rule="evenodd" d="M188.21 495.271C148.004 472.119 148.242 414.584 130.555 371.692C113.372 330.021 73.4515 290.328 85.8256 246.985C98.3397 203.152 159.826 196.951 190.157 162.923C220.442 128.947 218.141 63.3894 261.581 49.8105C304.698 36.3327 343.209 81.9869 383.457 102.499C416.424 119.301 453.337 130.166 476.252 159.217C498.811 187.817 510.177 224.858 508.679 261.254C507.296 294.878 481.756 320.706 468.338 351.568C454.36 383.718 453.976 422.738 428.158 446.453C400.626 471.743 361.344 476.045 324.711 483.498C279.033 492.791 228.604 518.533 188.21 495.271Z" fill="white"/>
</svg>
