<svg width="580" height="592" viewBox="0 0 580 592" fill="none" xmlns="http://www.w3.org/2000/svg">
<path fill-rule="evenodd" clip-rule="evenodd" d="M287.87 71.7111C332.175 70.9537 371.93 95.2949 408.998 119.574C445.798 143.678 479.021 172.554 500.47 210.962C523.141 251.557 551.919 300.53 534.022 343.445C515.579 387.668 450.12 385.784 414.294 417.601C385.319 443.334 381.577 491.97 347.025 509.516C310.882 527.87 267.331 521.698 227.913 512.248C187.042 502.449 148.676 484.081 118.576 454.747C86.7629 423.742 64.1724 384.822 53.0377 341.817C41.0036 295.338 30.2072 243.064 52.7994 200.7C75.1689 158.754 127.698 146.539 169.374 123.67C207.966 102.494 243.856 72.4635 287.87 71.7111Z" fill="#FFE4EA"/>
<path fill-rule="evenodd" clip-rule="evenodd" d="M391.79 97.4226C431.996 120.575 431.758 178.11 449.445 221.002C466.628 262.673 506.548 302.365 494.174 345.708C481.66 389.542 420.174 395.743 389.843 429.771C359.558 463.747 361.859 529.304 318.419 542.883C275.302 556.361 236.791 510.707 196.543 490.194C163.576 473.393 126.663 462.528 103.748 433.477C81.1891 404.877 69.8233 367.836 71.3207 331.44C72.7041 297.815 98.2436 271.988 111.662 241.125C125.64 208.975 126.024 169.956 151.842 146.241C179.373 120.951 218.656 116.649 255.289 109.196C300.966 99.903 351.396 74.1612 391.79 97.4226Z" fill="white"/>
</svg>
