<svg width="501" height="450" viewBox="0 0 501 450" fill="none" xmlns="http://www.w3.org/2000/svg">
<path fill-rule="evenodd" clip-rule="evenodd" d="M252.13 449.983C207.825 450.74 168.07 426.399 131.002 402.12C94.2016 378.016 60.9791 349.14 39.5296 310.732C16.8586 270.137 -11.9186 221.164 5.97825 178.249C24.4208 134.026 89.8796 135.91 125.705 104.093C154.681 78.3601 158.423 29.7235 192.975 12.1774C229.118 -6.17603 272.669 -0.00413549 312.087 9.44628C352.958 19.245 391.324 37.6128 421.424 66.9471C453.237 97.952 475.828 136.872 486.962 179.877C498.996 226.356 509.793 278.63 487.201 320.994C464.831 362.94 412.302 375.155 370.626 398.024C332.034 419.2 296.144 449.23 252.13 449.983Z" fill="#FFE4EA"/>
</svg>
