<svg width="501" height="451" viewBox="0 0 501 451" fill="none" xmlns="http://www.w3.org/2000/svg">
<path fill-rule="evenodd" clip-rule="evenodd" d="M252.63 450.289C208.325 451.046 168.57 426.705 131.502 402.426C94.7015 378.322 61.4791 349.446 40.0295 311.038C17.3586 270.443 -11.4187 221.47 6.47821 178.555C24.9208 134.332 90.3795 136.216 126.205 104.399C155.181 78.6663 158.923 30.0297 193.475 12.4836C229.618 -5.86987 273.169 0.302002 312.587 9.75244C353.458 19.5512 391.824 37.9189 421.924 67.2533C453.737 98.2582 476.327 137.178 487.462 180.183C499.496 226.662 510.293 278.936 487.7 321.3C465.331 363.246 412.802 375.461 371.126 398.33C332.534 419.506 296.644 449.537 252.63 450.289Z" fill="#FFE4EA"/>
</svg>
