<svg width="500" height="450" viewBox="0 0 500 450" fill="none" xmlns="http://www.w3.org/2000/svg">
<path fill-rule="evenodd" clip-rule="evenodd" d="M248.251 0.0172286C292.556 -0.740152 332.311 23.601 369.379 47.88C406.18 71.9838 439.402 100.86 460.852 139.268C483.523 179.863 512.3 228.836 494.403 271.751C475.96 315.974 410.502 314.09 374.676 345.907C345.701 371.64 341.958 420.276 307.406 437.823C271.264 456.176 227.712 450.004 188.294 440.554C147.423 430.755 109.057 412.387 78.9577 383.053C47.1443 352.048 24.5537 313.128 13.419 270.123C1.3849 223.644 -9.41152 171.37 13.1807 129.006C35.5502 87.0604 88.0792 74.845 129.755 51.9764C168.347 30.7998 204.237 0.769639 248.251 0.0172286Z" fill="#FFE4EA"/>
</svg>
